<svg width="857" height="170" viewBox="0 0 857 170" fill="none" xmlns="http://www.w3.org/2000/svg">
<path d="M169.25 167.565L9.14684e-05 169.493L9.15527e-05 167.565H169.25Z" fill="url(#paint0_linear_25_132)"/>
<path d="M61.8113 50.525C63.4427 54.1503 64.2584 57.8058 64.2584 61.4915C64.2584 65.1772 64.0771 68.2285 63.7146 70.6454C63.4125 73.0622 62.9291 75.3885 62.2645 77.6241C60.7539 82.6995 58.6089 86.5967 55.8296 89.3156C53.9565 79.9503 51.9022 73.8779 49.6666 71.0985C47.4914 68.3191 45.286 66.4461 43.0504 65.4793C40.8752 64.5126 38.549 64.0292 36.0717 64.0292C33.5944 64.0292 31.5703 64.2709 29.9993 64.7542C28.4284 65.2376 27.0689 65.9325 25.9209 66.8388C23.3227 68.8327 22.0237 71.0985 22.0237 73.6362C22.0237 76.1739 22.6581 78.3793 23.927 80.2524C25.1958 82.065 26.8574 83.7871 28.9117 85.4184C31.0265 86.9894 33.4131 88.5301 36.0717 90.0407L44.2286 94.6629C51.2375 98.5903 56.041 101.853 58.6392 104.451C63.775 109.587 66.3429 114.995 66.3429 120.674C66.3429 128.106 63.8052 134.36 58.7298 139.435C52.3251 145.961 42.7181 149.224 29.9087 149.224C18.2473 149.224 9.48619 146.505 3.6253 141.067C1.93349 139.496 0.725059 137.925 0 136.354C0.483373 131.822 2.5075 127.563 6.07237 123.575C9.5164 119.708 12.8698 117.472 16.1326 116.868C15.8909 117.653 15.77 118.832 15.77 120.403C15.77 121.974 16.2232 123.937 17.1295 126.294C18.0358 128.59 19.3349 130.735 21.0267 132.729C24.8333 137.321 29.1232 139.617 33.8965 139.617C38.6698 139.617 42.1743 138.529 44.4099 136.354C46.6455 134.179 47.7633 131.701 47.7633 128.922C47.7633 126.143 47.1288 123.816 45.86 121.943C44.5911 120.07 42.8993 118.318 40.7846 116.687C38.7302 115.055 36.3738 113.484 33.7153 111.974L25.5583 107.351C18.6099 103.243 13.8365 99.7384 11.2384 96.8381C6.04216 91.0376 3.44403 84.7236 3.44403 77.896C3.44403 70.7058 6.46511 64.8751 12.5073 60.4039C18.2473 56.1744 25.4073 54.0596 33.9871 54.0596L49.9384 55.1472C53.8054 55.1472 56.4942 54.6941 58.0047 53.7877C59.5153 52.821 60.7841 51.7334 61.8113 50.525Z" fill="white"/>
<path d="M145.646 50.4343C147.157 54.0596 147.912 58.0475 147.912 62.3978C147.912 66.6877 147.761 70.2526 147.459 73.0924C147.157 75.9322 146.704 78.6814 146.099 81.34C144.831 86.9592 142.867 91.4606 140.208 94.8442C137.55 78.4095 133.23 68.44 127.248 64.9355C125.133 63.7271 122.837 63.1229 120.36 63.1229C117.943 63.1229 115.828 63.6969 114.016 64.8449C112.203 65.9929 110.662 67.6545 109.393 69.8297C106.795 74.18 105.496 79.8294 105.496 86.7779C105.496 93.666 106.191 99.6175 107.581 104.633C108.97 109.587 110.783 114.058 113.019 118.046C115.315 121.974 117.883 125.387 120.722 128.288C123.623 131.127 126.523 133.514 129.423 135.448C135.284 139.194 140.48 141.067 145.012 141.067C144.77 142.638 143.985 144.178 142.655 145.689C141.326 147.2 139.876 148.378 138.305 149.224C131.9 149.224 124.559 147.048 116.281 142.698C100.874 134.541 90.4813 122.638 85.1038 106.989C83.1099 101.249 82.113 95.388 82.113 89.4063C82.113 83.3641 82.8078 78.2887 84.1975 74.18C85.5872 70.0109 87.6113 66.4461 90.2699 63.4854C95.7078 57.2016 103.261 54.0596 112.928 54.0596C116.191 54.0596 119.363 54.2711 122.444 54.6941C128.245 55.4795 132.293 55.8723 134.589 55.8723C136.946 55.8723 139.03 55.5702 140.843 54.966C142.655 54.3013 144.257 52.7908 145.646 50.4343Z" fill="white"/>
<path d="M233.107 99.0133L232.835 116.415C232.835 127.23 233.832 134.602 235.826 138.529C237.034 140.885 238.454 142.698 240.085 143.967L244.345 147.411H218.062L215.252 136.898C208.424 145.115 198.696 149.224 186.068 149.224C178.878 149.224 173.078 146.807 168.667 141.973C164.8 137.623 162.866 132.487 162.866 126.566C162.866 120.644 164.256 115.478 167.036 111.067C169.875 106.657 173.591 103.001 178.183 100.101C187.247 94.4817 198.636 91.5512 212.352 91.3095V90.3126C212.352 75.6301 210.086 67.0201 205.554 64.4824C203.923 63.576 201.808 63.1229 199.21 63.1229C196.672 63.1229 194.135 63.9688 191.597 65.6606C189.059 67.3524 186.763 69.5276 184.709 72.1861C180.6 77.5636 177.67 83.9079 175.917 91.2189C170.54 88.0166 167.851 81.8838 167.851 72.8205C167.851 69.1348 168.335 64.9959 169.301 60.4039C171.597 60.4039 173.773 60.0716 175.827 59.4069L182.806 57.2318C189.633 55.117 196.31 54.0596 202.835 54.0596C209.361 54.0596 214.557 55.0264 218.424 56.9599C222.351 58.8934 225.403 61.7634 227.578 65.5699C231.264 72.035 233.107 83.1828 233.107 99.0133ZM182.443 128.378C182.443 132.124 183.289 135.025 184.981 137.079C186.733 139.133 188.908 140.16 191.506 140.16C194.104 140.16 196.612 139.496 199.029 138.166C201.446 136.777 203.621 134.904 205.554 132.547C210.086 127.17 212.352 120.856 212.352 113.605V100.192C203.893 100.977 196.914 103.787 191.416 108.62C185.434 113.817 182.443 120.403 182.443 128.378Z" fill="white"/>
<path d="M283.045 105.901C283.045 125.478 284.223 139.315 286.58 147.411H259.843C261.535 141.55 262.592 134.632 263.015 126.656C263.922 107.382 264.375 92.4273 264.375 81.7931C264.375 71.1589 264.344 64.0292 264.284 60.4039C264.224 56.7182 264.163 53.0325 264.103 49.3467C263.74 36.2353 263.106 27.9877 262.2 24.6041C261.354 21.1601 260.538 18.6828 259.752 17.1722C259.027 15.6013 258.181 14.1814 257.215 12.9125L254.224 8.74343H287.305C285.613 14.846 284.616 20.7069 284.314 26.3261C284.072 31.8849 283.861 36.8093 283.679 41.0992C283.559 45.3891 283.438 49.8603 283.317 54.5128C283.196 62.2468 283.136 71.461 283.136 82.1557L283.045 105.901Z" fill="white"/>
<path d="M388.428 96.6141L429.031 147.912H404.017L374.289 108.759V83.5631L399.666 45.6787H424.318L388.428 96.6141ZM344.743 147.912V7.06933H366.857V147.912H344.743Z" fill="#918D8D"/>
<path d="M473.26 147.912H451.145V45.6787H473.26V147.912ZM475.254 13.0511C475.254 16.6764 473.985 19.7579 471.447 22.2956C468.909 24.7124 465.828 25.9209 462.203 25.9209C458.577 25.9209 455.496 24.652 452.958 22.1143C450.541 19.5766 449.333 16.5555 449.333 13.0511C449.333 9.42577 450.602 6.34427 453.139 3.80656C455.677 1.26885 458.698 0 462.203 0C465.828 0 468.909 1.26885 471.447 3.80656C473.985 6.34427 475.254 9.42577 475.254 13.0511Z" fill="#918D8D"/>
<path d="M533.258 116.916C533.258 121.024 533.802 124.227 534.89 126.523C535.977 128.819 537.488 130.571 539.421 131.78C541.476 132.988 543.711 133.773 546.128 134.136C548.666 134.378 551.324 134.498 554.104 134.498V147.912C552.533 148.154 550.962 148.335 549.391 148.456C548.062 148.577 546.43 148.637 544.497 148.637C542.684 148.758 540.871 148.818 539.059 148.818C537.246 148.818 535.373 148.758 533.44 148.637C531.627 148.516 530.056 148.335 528.727 148.093C524.618 147.368 521.416 145.616 519.12 142.837C516.824 139.936 515.071 136.794 513.863 133.411C512.775 129.906 512.05 126.523 511.688 123.26C511.446 119.997 511.325 117.46 511.325 115.647V60.5424H497.912V45.6787H511.325V16.6764H533.258V45.6787H549.572V60.5424H533.258V116.916Z" fill="#918D8D"/>
<path d="M570.823 105.375H613.359V147.912H570.823V105.375Z" fill="#FF0000"/>
<path d="M626.742 116.494C626.742 114.581 627.095 112.869 627.8 111.358C628.505 109.798 629.487 108.488 630.745 107.431C632.004 106.323 633.414 105.467 634.975 104.863C636.586 104.209 638.248 103.806 639.96 103.655V111.207C638.65 111.459 637.618 111.988 636.863 112.793C636.158 113.599 635.806 114.732 635.806 116.192C635.806 117.401 636.183 118.382 636.939 119.138C637.744 119.843 638.751 120.472 639.96 121.026V129.107C639.104 128.856 638.222 128.579 637.316 128.276C636.46 127.924 635.604 127.546 634.748 127.144C632.08 125.734 630.066 124.248 628.706 122.687C627.397 121.127 626.742 119.062 626.742 116.494ZM651.968 113.322C650.609 112.617 649.149 112.089 647.588 111.736C646.077 111.384 644.567 111.157 643.056 111.056V103.579C645.322 103.68 647.412 104.007 649.325 104.561C651.238 105.065 653.101 105.895 654.914 107.053L651.968 113.322ZM630.745 137.415C631.752 138.12 632.936 138.775 634.295 139.379C635.705 139.983 637.467 140.285 639.582 140.285H639.96V147.309C638.701 147.309 637.543 147.259 636.485 147.158C635.428 147.108 634.371 146.957 633.313 146.705C632.306 146.403 631.274 146 630.217 145.497C629.159 144.993 628.052 144.339 626.893 143.533L630.745 137.415ZM643.056 122.234C644.567 122.738 646.102 123.292 647.663 123.896C649.224 124.5 650.634 125.255 651.893 126.162C653.202 127.068 654.259 128.201 655.065 129.56C655.921 130.87 656.349 132.531 656.349 134.545C656.349 136.509 655.996 138.221 655.292 139.681C654.587 141.141 653.63 142.4 652.422 143.457C651.263 144.515 649.879 145.346 648.268 145.95C646.656 146.554 644.919 146.957 643.056 147.158V139.983C644.768 139.681 646.077 139.152 646.984 138.397C647.94 137.591 648.419 136.534 648.419 135.225C648.419 133.916 647.89 132.909 646.833 132.204C645.826 131.449 644.567 130.794 643.056 130.24V122.234Z" fill="white"/>
<path d="M680.367 134.017C680.367 135.728 680.593 137.063 681.046 138.019C681.499 138.976 682.129 139.706 682.934 140.21C683.79 140.713 684.722 141.041 685.729 141.192C686.786 141.292 687.894 141.343 689.052 141.343V146.932C688.398 147.032 687.743 147.108 687.088 147.158C686.535 147.209 685.855 147.234 685.049 147.234C684.294 147.284 683.539 147.309 682.783 147.309C682.028 147.309 681.248 147.284 680.442 147.234C679.687 147.183 679.032 147.108 678.478 147.007C676.766 146.705 675.432 145.975 674.475 144.817C673.519 143.608 672.789 142.299 672.285 140.889C671.832 139.429 671.53 138.019 671.379 136.66C671.278 135.3 671.228 134.243 671.228 133.488V110.528H665.639V104.334H671.228V92.2501H680.367V104.334H687.164V110.528H680.367V134.017Z" fill="white"/>
<path d="M708.689 127.521C708.689 129.283 708.765 130.945 708.916 132.506C709.067 134.017 709.394 135.351 709.898 136.509C710.401 137.667 711.156 138.598 712.163 139.303C713.17 140.008 714.505 140.361 716.166 140.361C716.821 140.361 717.752 140.26 718.961 140.059C720.169 139.857 721.327 139.53 722.435 139.077V144.666C721.126 145.371 719.691 146 718.13 146.554C716.62 147.058 715.109 147.309 713.598 147.309C712.39 147.309 711.307 147.183 710.351 146.932C709.394 146.73 708.488 146.403 707.632 145.95C706.826 145.446 706.046 144.892 705.29 144.288C704.535 143.684 703.78 143.004 703.025 142.249C702.169 141.393 701.489 140.411 700.985 139.303C700.482 138.145 700.104 136.962 699.852 135.754C699.651 134.495 699.525 133.236 699.475 131.977C699.475 130.719 699.475 129.485 699.475 128.276V104.334H708.689V127.521ZM734.746 104.334V146.932H726.514L725.532 142.551V104.334H734.746Z" fill="white"/>
<path d="M783.083 88.2472V146.932H774.398L773.869 141.871V88.2472H783.083ZM744.867 125.029C744.867 121.101 745.395 117.803 746.453 115.135C747.56 112.466 748.97 110.301 750.682 108.639C752.394 106.978 754.282 105.795 756.347 105.09C758.461 104.334 760.526 103.957 762.54 103.957C764.101 103.957 765.586 104.133 766.996 104.485C768.406 104.838 769.665 105.341 770.772 105.996V114.002C769.916 113.096 768.96 112.365 767.902 111.812C766.845 111.258 765.662 110.981 764.353 110.981C762.792 110.981 761.407 111.384 760.199 112.189C758.99 112.944 757.958 114.002 757.102 115.361C756.296 116.721 755.667 118.282 755.214 120.044C754.761 121.806 754.534 123.694 754.534 125.709C754.534 127.723 754.786 129.611 755.289 131.373C755.793 133.085 756.473 134.596 757.329 135.905C758.185 137.214 759.217 138.246 760.425 139.001C761.684 139.757 763.043 140.134 764.504 140.134C766.971 140.134 769.06 139.152 770.772 137.189V145.043C769.564 145.698 768.154 146.252 766.543 146.705C764.982 147.108 763.32 147.309 761.558 147.309C759.544 147.309 757.555 146.957 755.591 146.252C753.678 145.497 751.966 144.288 750.456 142.627C748.542 140.461 747.132 137.793 746.226 134.621C745.32 131.398 744.867 128.201 744.867 125.029Z" fill="white"/>
<path d="M805.137 146.932H795.923V104.334H805.137V146.932ZM805.968 90.7395C805.968 92.2501 805.439 93.534 804.382 94.5914C803.325 95.5984 802.041 96.102 800.53 96.102C799.019 96.102 797.735 95.5733 796.678 94.5159C795.671 93.4585 795.168 92.1997 795.168 90.7395C795.168 89.229 795.696 87.9451 796.754 86.8877C797.811 85.8303 799.07 85.3016 800.53 85.3016C802.041 85.3016 803.325 85.8303 804.382 86.8877C805.439 87.9451 805.968 89.229 805.968 90.7395Z" fill="white"/>
<path d="M837.991 104.108C840.761 104.259 843.278 104.939 845.544 106.147C847.81 107.305 849.698 108.866 851.209 110.83C852.77 112.743 853.978 114.984 854.834 117.552C855.69 120.12 856.118 122.864 856.118 125.784C856.118 128.704 855.665 131.449 854.758 134.017C853.902 136.534 852.694 138.75 851.133 140.663C849.572 142.526 847.659 144.036 845.393 145.195C843.127 146.353 840.66 147.032 837.991 147.234V139.983C840.509 139.429 842.548 137.843 844.109 135.225C845.72 132.607 846.526 129.46 846.526 125.784C846.526 123.921 846.325 122.184 845.922 120.573C845.569 118.911 845.015 117.426 844.26 116.117C843.505 114.807 842.599 113.725 841.541 112.869C840.484 112.013 839.301 111.459 837.991 111.207V104.108ZM816.919 125.633C816.919 122.713 817.347 119.994 818.203 117.476C819.059 114.959 820.268 112.768 821.829 110.905C823.44 108.992 825.353 107.456 827.569 106.298C829.784 105.14 832.226 104.435 834.895 104.183V111.207C832.377 111.761 830.363 113.347 828.853 115.966C827.342 118.584 826.587 121.731 826.587 125.406C826.587 127.269 826.763 129.032 827.115 130.693C827.518 132.355 828.072 133.84 828.777 135.149C829.482 136.459 830.338 137.541 831.345 138.397C832.402 139.253 833.586 139.782 834.895 139.983V147.234C832.125 147.032 829.633 146.353 827.418 145.195C825.202 143.986 823.314 142.425 821.753 140.512C820.192 138.598 818.984 136.358 818.128 133.79C817.322 131.222 816.919 128.503 816.919 125.633Z" fill="white"/>
<path d="M336.922 147.411H312.11L336.922 136.427V147.411Z" fill="white"/>
<path d="M336.922 92.5994H300.7L336.922 77.4732V92.5994Z" fill="white"/>
<path d="M336.922 24.542H288.973L336.922 9.64621V24.542Z" fill="white"/>
<defs>
<linearGradient id="paint0_linear_25_132" x1="428.096" y1="171.503" x2="428.096" y2="103.401" gradientUnits="userSpaceOnUse">
<stop stop-color="white"/>
<stop offset="1" stop-color="#D9D9D9"/>
</linearGradient>
</defs>
</svg>
